<?xml version="1.0" standalone="no"?>
<!DOCTYPE svg PUBLIC "-//W3C//DTD SVG 20010904//EN"
 "http://www.w3.org/TR/2001/REC-SVG-20010904/DTD/svg10.dtd">
<svg version="1.0" xmlns="http://www.w3.org/2000/svg"
 width="904.000000pt" height="900.000000pt" viewBox="0 0 904.000000 900.000000"
 preserveAspectRatio="xMidYMid meet">
<metadata>
Created by potrace 1.15, written by Peter Selinger 2001-2017
</metadata>
<g transform="translate(0.000000,900.000000) scale(0.100000,-0.100000)"
fill="#000000" stroke="none">
<path d="M4235 8979 c-172 -14 -398 -41 -423 -50 -13 -5 -39 -9 -59 -9 -20 0
-52 -4 -72 -9 -20 -5 -72 -17 -116 -26 -44 -9 -88 -20 -97 -26 -10 -5 -30 -9
-45 -9 -14 0 -40 -4 -57 -9 -17 -6 -56 -17 -86 -25 -30 -8 -71 -20 -90 -27
-63 -22 -75 -26 -110 -38 -19 -7 -44 -14 -55 -15 -11 -2 -45 -14 -75 -28 -30
-14 -71 -31 -90 -38 -19 -7 -39 -17 -45 -22 -5 -4 -17 -8 -27 -8 -18 0 -25 -3
-88 -35 -57 -30 -64 -33 -85 -40 -20 -6 -20 -7 -1 -21 11 -8 15 -14 10 -14 -6
0 -15 5 -21 11 -7 7 -25 3 -59 -15 -27 -13 -68 -33 -91 -42 -24 -10 -43 -21
-43 -26 0 -4 -3 -7 -7 -6 -11 2 -102 -42 -109 -53 -3 -5 -13 -9 -24 -9 -10 0
-20 -6 -23 -13 -2 -7 -27 -24 -53 -37 -63 -32 -113 -64 -141 -90 -12 -11 -25
-20 -28 -20 -4 0 -21 -11 -39 -25 -18 -14 -36 -25 -39 -25 -13 0 -97 -62 -97
-71 0 -6 -4 -8 -9 -5 -4 3 -16 -3 -26 -14 -10 -11 -23 -20 -29 -20 -6 -1 -31
-21 -56 -45 -25 -25 -48 -45 -52 -45 -4 0 -20 -12 -35 -28 -16 -15 -53 -46
-83 -69 -66 -51 -423 -409 -470 -473 -18 -25 -38 -49 -45 -55 -6 -5 -24 -28
-40 -50 -16 -22 -44 -54 -62 -72 -18 -18 -33 -36 -33 -40 0 -4 -16 -28 -35
-52 -19 -24 -35 -47 -35 -50 0 -3 -11 -19 -25 -35 -13 -16 -22 -33 -19 -37 3
-5 1 -9 -4 -9 -5 0 -34 -37 -63 -82 -66 -99 -66 -99 -73 -118 -4 -8 -22 -40
-41 -70 -33 -52 -210 -403 -254 -501 -11 -26 -23 -60 -27 -75 -4 -16 -10 -33
-14 -39 -11 -14 -71 -184 -77 -218 -3 -15 -9 -30 -14 -33 -5 -3 -9 -16 -9 -29
0 -13 -5 -27 -10 -30 -6 -3 -10 -13 -10 -22 0 -8 -6 -29 -14 -46 -8 -18 -17
-45 -20 -62 -3 -16 -10 -50 -15 -75 -73 -326 -72 -323 -106 -600 -27 -218 -39
-595 -25 -785 13 -164 30 -324 41 -375 5 -25 11 -61 14 -80 7 -61 26 -164 36
-196 5 -17 9 -38 9 -47 0 -8 5 -28 11 -44 7 -15 14 -43 16 -62 2 -19 8 -42 13
-52 6 -10 10 -29 10 -43 0 -14 4 -35 9 -48 17 -43 43 -113 51 -133 4 -11 13
-42 19 -70 12 -50 47 -146 82 -222 10 -24 19 -46 19 -49 0 -3 7 -21 15 -40 8
-19 22 -51 31 -71 31 -73 167 -339 206 -403 21 -36 43 -74 49 -85 19 -39 64
-113 80 -132 9 -10 34 -45 55 -78 203 -316 584 -730 904 -982 184 -145 452
-329 535 -368 22 -10 54 -28 70 -40 34 -25 414 -215 430 -215 6 0 32 -11 59
-25 27 -14 53 -25 58 -25 5 0 33 -10 61 -23 29 -13 72 -29 97 -36 25 -7 54
-17 65 -21 11 -5 45 -16 75 -26 30 -9 64 -20 75 -25 102 -41 572 -138 765
-158 314 -33 691 -38 950 -12 179 18 270 30 278 35 5 3 38 8 72 11 35 4 69 9
74 13 6 3 34 10 61 14 80 11 140 24 152 31 6 4 28 9 49 12 21 2 42 9 48 15 5
5 22 10 38 10 15 0 37 4 50 9 13 5 64 21 113 36 50 15 94 31 100 36 5 5 20 9
35 9 14 0 34 7 44 15 10 8 22 12 26 10 5 -3 21 2 36 10 16 8 35 15 42 15 6 0
12 4 12 8 0 4 21 14 48 21 26 8 54 18 62 22 8 4 99 48 203 98 103 51 187 96
187 101 0 5 7 7 15 4 8 -4 31 6 49 20 19 14 39 26 45 26 6 0 11 3 11 8 0 4 15
14 33 21 43 19 87 52 82 62 -3 4 3 5 14 2 21 -5 37 12 21 22 -6 4 -34 -8 -62
-27 -61 -39 -87 -55 -108 -64 -8 -4 -17 -10 -20 -14 -3 -3 -22 -15 -43 -26
-73 -36 -77 -39 -77 -46 0 -5 -9 -8 -20 -8 -11 0 -23 -7 -26 -15 -4 -8 -10
-12 -15 -10 -5 3 -21 -1 -37 -9 -16 -8 -32 -12 -36 -9 -3 4 -6 -1 -6 -10 0
-11 -7 -15 -20 -12 -12 2 -23 -2 -27 -10 -3 -8 -13 -15 -23 -15 -11 0 -21 -4
-24 -9 -3 -4 -19 -11 -36 -15 -17 -3 -29 -10 -25 -16 3 -5 0 -7 -9 -4 -8 3
-30 -2 -48 -12 -57 -29 -67 -34 -78 -34 -6 0 -30 -9 -52 -20 -23 -11 -48 -20
-56 -20 -8 0 -26 -6 -40 -14 -33 -17 -142 -51 -159 -50 -7 1 -13 -2 -13 -6 0
-5 -8 -9 -17 -9 -10 0 -61 -12 -113 -26 -52 -15 -111 -30 -130 -35 -19 -4 -47
-12 -61 -18 -15 -6 -29 -8 -32 -5 -3 3 -27 0 -54 -6 -101 -23 -212 -42 -256
-43 -26 0 -47 -4 -47 -9 0 -8 -59 -4 -92 7 -10 3 -18 1 -18 -4 0 -11 -57 -23
-135 -29 -93 -7 -567 -8 -571 -1 -8 13 127 20 291 16 91 -2 165 -1 165 3 0 4
8 8 18 8 9 0 29 3 45 7 17 4 27 2 27 -5 0 -6 7 -11 15 -11 8 0 15 5 15 10 0 6
7 10 16 10 9 0 12 -5 8 -12 -5 -8 -2 -9 12 -3 10 4 34 7 52 6 17 -1 32 2 32 7
0 5 33 12 73 16 39 3 88 8 107 10 19 3 61 8 93 12 33 4 61 13 64 20 3 8 22 11
61 9 37 -2 48 -1 32 4 -22 7 -20 8 20 14 71 9 113 18 135 27 11 5 44 14 72 20
29 7 50 16 47 21 -3 5 7 9 22 9 32 0 117 24 189 53 27 11 60 19 72 19 12 0 21
4 18 8 -2 4 15 13 38 19 23 7 51 18 62 25 11 7 44 19 73 25 28 7 52 17 52 22
0 5 7 9 15 9 15 0 205 88 215 100 14 15 90 41 101 35 8 -5 10 -4 5 3 -4 7 9
20 31 32 47 25 76 43 83 51 3 3 32 19 65 35 33 16 62 32 63 37 2 4 9 7 17 7 7
0 18 7 25 15 7 9 28 23 46 31 19 9 34 20 34 25 0 5 5 9 10 9 6 0 16 4 23 10
56 46 76 60 84 60 10 0 14 3 109 78 77 60 95 78 86 86 -3 4 0 5 8 2 8 -3 31 9
51 27 21 17 52 44 70 60 150 123 399 372 519 518 19 23 45 53 58 66 12 14 19
29 16 35 -4 6 -3 8 3 5 5 -3 18 6 29 21 10 15 29 36 42 48 12 12 22 25 22 29
0 4 20 35 44 69 24 33 43 63 42 66 0 3 10 17 22 30 13 14 28 34 33 45 5 11 25
40 44 65 19 25 43 63 53 85 11 22 30 52 43 66 24 26 60 90 78 142 6 15 15 27
21 27 5 0 9 4 8 8 -5 14 45 112 53 106 10 -6 -10 -55 -29 -71 -9 -7 -12 -21
-9 -34 3 -11 3 -18 0 -15 -6 5 -43 -61 -43 -77 0 -5 -7 -15 -15 -24 -8 -8 -12
-20 -8 -26 3 -7 3 -9 -2 -5 -4 4 -24 -25 -44 -65 -20 -39 -49 -90 -64 -112
-15 -22 -27 -46 -27 -54 0 -11 -3 -11 -17 0 -13 11 -15 11 -9 1 9 -16 -15 -71
-44 -97 -11 -10 -20 -24 -20 -32 0 -7 -4 -13 -10 -13 -5 0 -10 -6 -10 -14 0
-8 -3 -16 -7 -18 -5 -2 -26 -30 -48 -63 -22 -33 -64 -88 -92 -122 -29 -34 -53
-65 -53 -69 0 -4 -19 -28 -42 -53 -24 -26 -62 -70 -85 -97 -53 -64 -304 -312
-405 -400 -43 -37 -78 -71 -78 -76 0 -5 -4 -7 -8 -4 -4 2 -23 -9 -42 -26 -19
-17 -60 -49 -90 -71 -30 -23 -61 -47 -68 -54 -7 -7 -19 -13 -27 -13 -7 0 -15
-4 -17 -8 -1 -4 -25 -23 -53 -42 -27 -19 -56 -41 -63 -47 -7 -7 -20 -13 -28
-13 -8 0 -14 -4 -14 -9 0 -5 -10 -11 -22 -15 -16 -4 -20 -8 -12 -16 8 -8 41 9
118 62 59 40 115 78 123 83 9 6 24 17 33 26 17 16 100 80 162 126 100 73 415
374 519 498 19 22 40 46 47 54 8 8 39 46 70 85 31 39 59 73 62 76 24 23 58 79
52 85 -4 5 -2 5 4 2 7 -4 29 20 55 61 24 37 58 85 76 106 18 22 33 45 33 52 0
7 3 14 8 16 6 3 101 154 155 248 34 60 207 409 207 418 0 11 34 97 66 169 13
28 24 58 24 65 0 8 4 18 9 24 6 5 12 21 15 35 2 15 9 35 14 45 6 11 16 39 22
64 7 25 16 54 20 65 12 29 37 122 50 185 7 30 16 63 21 72 5 10 9 33 9 51 0
19 3 37 7 41 4 4 14 40 21 79 7 40 17 97 23 127 11 63 20 141 44 360 28 270
16 756 -25 1005 -6 33 -13 76 -16 95 -21 133 -78 394 -95 438 -5 13 -9 36 -9
52 0 16 -4 32 -10 35 -5 3 -10 15 -10 26 0 10 -4 27 -9 37 -5 9 -28 75 -51
147 -22 71 -45 134 -49 140 -5 5 -19 39 -31 75 -12 36 -26 69 -31 74 -5 6 -9
16 -9 23 0 13 -46 109 -151 313 -50 96 -94 174 -156 272 -13 21 -23 40 -23 44
0 3 -20 31 -45 63 -25 31 -45 62 -45 69 0 6 -6 15 -13 19 -7 4 -25 28 -39 53
-24 41 -151 208 -167 220 -4 3 -32 37 -63 75 -89 112 -431 452 -538 535 -25
19 -86 69 -135 110 -50 41 -103 81 -118 89 -15 8 -27 18 -27 23 0 4 -5 8 -11
8 -6 0 -62 36 -124 80 -62 44 -128 87 -147 96 -40 19 -71 36 -89 51 -11 8
-102 58 -207 112 -98 51 -250 121 -262 121 -9 0 -24 6 -35 14 -11 7 -45 22
-75 34 -30 11 -80 30 -110 42 -30 12 -64 24 -75 27 -11 2 -29 8 -40 12 -43 17
-152 53 -185 61 -19 5 -73 18 -120 30 -178 46 -514 110 -573 110 -20 0 -58 4
-84 10 -102 20 -599 33 -768 19z m-2438 -961 c-18 -15 -38 -25 -46 -22 -12 4
-12 2 0 -13 7 -10 9 -15 5 -11 -8 7 -70 -37 -114 -79 -6 -6 -21 -15 -32 -18
-11 -4 -18 -11 -15 -16 4 -5 2 -9 -3 -9 -14 0 -72 -56 -72 -70 0 -6 -4 -8 -10
-5 -5 3 -10 2 -10 -3 0 -5 -11 -15 -25 -22 -14 -7 -23 -15 -21 -18 5 -4 -31
-42 -39 -42 -11 0 -85 -78 -85 -89 0 -6 -3 -11 -7 -11 -5 0 -23 -14 -41 -31
-18 -17 -36 -28 -39 -25 -6 5 28 45 75 89 56 52 72 70 72 78 0 5 4 9 8 9 4 0
42 33 83 73 42 39 96 89 120 109 24 20 54 46 66 57 12 12 25 21 29 21 3 0 28
18 54 40 26 22 50 36 54 32 4 -4 7 -2 6 3 -5 21 1 29 10 15 6 -11 1 -22 -23
-42z m4055 -835 c143 -22 257 -137 308 -313 19 -65 21 -82 11 -123 -6 -27 -11
-59 -11 -73 0 -39 -61 -166 -99 -207 -20 -21 -61 -52 -91 -68 -115 -63 -233
-75 -347 -35 -78 27 -296 80 -397 97 -132 22 -339 -1 -576 -65 -65 -17 -282
-88 -325 -106 -16 -7 -39 -16 -50 -20 -41 -14 -352 -165 -423 -205 -47 -27
-118 -76 -208 -144 -75 -57 -264 -247 -264 -265 0 -8 -3 -16 -7 -18 -21 -9
-68 -88 -94 -154 -29 -76 -55 -235 -42 -257 4 -6 7 -39 8 -72 0 -51 6 -69 33
-112 48 -75 109 -105 257 -128 134 -21 304 -28 390 -16 44 6 118 15 165 21
101 13 187 27 215 34 11 3 58 14 105 25 197 47 416 146 599 274 l54 37 109 0
c100 0 113 -2 154 -26 27 -16 55 -44 71 -71 22 -39 25 -52 20 -102 -13 -126
-70 -256 -158 -360 -90 -109 -328 -358 -529 -555 -175 -171 -461 -435 -488
-450 -9 -5 -51 -39 -92 -74 -41 -35 -91 -78 -110 -94 -44 -37 -166 -129 -191
-144 -26 -15 -13 -25 18 -13 13 5 36 9 49 9 14 0 46 8 72 19 26 10 121 42 212
71 91 29 185 60 210 70 25 10 97 34 160 55 63 20 156 52 205 70 50 18 158 53
240 79 83 26 177 57 210 68 108 38 168 47 295 48 179 0 264 -32 359 -135 79
-86 118 -211 108 -350 -7 -98 -27 -156 -69 -204 -77 -87 -155 -121 -283 -121
-79 0 -99 4 -265 55 -98 30 -116 32 -225 16 -72 -11 -285 -58 -360 -81 -16 -5
-82 -21 -145 -35 -63 -15 -151 -38 -195 -51 -44 -12 -114 -30 -155 -38 -41 -8
-111 -24 -155 -36 -77 -21 -187 -44 -420 -91 -60 -12 -119 -25 -130 -30 -11
-4 -51 -13 -90 -19 -38 -6 -95 -19 -125 -28 -84 -25 -299 -23 -365 3 -69 27
-131 95 -152 164 -22 76 -14 208 17 275 46 102 134 207 250 301 35 28 81 67
104 89 22 21 73 62 111 91 39 29 136 105 217 168 80 64 156 120 167 127 53 28
383 290 445 353 24 25 26 31 14 44 -13 12 -21 12 -64 -2 -27 -8 -62 -19 -79
-24 -29 -8 -45 -12 -185 -45 -153 -36 -562 -45 -695 -17 -134 29 -223 63 -330
126 -22 13 -75 59 -118 102 -90 90 -157 211 -182 328 -17 83 -20 352 -4 441
17 98 56 210 110 318 74 147 93 179 184 301 100 133 397 430 495 494 14 8 50
34 80 57 155 117 488 321 630 386 116 53 230 103 279 120 31 12 76 28 101 37
25 9 50 19 55 23 13 8 206 69 305 97 106 29 311 68 405 77 44 3 89 10 100 15
27 11 503 4 587 -8z"/>
</g>
</svg>
